<svg width="27" height="27" viewBox="0 0 27 27" fill="none" xmlns="http://www.w3.org/2000/svg">
<path d="M3.375 13.5C3.375 15.3608 4.88925 16.875 6.75 16.875C7.64325 16.875 8.451 16.5206 9.05512 15.9525L15.795 19.8045C15.7747 19.9508 15.75 20.097 15.75 20.25C15.75 22.1108 17.2642 23.625 19.125 23.625C20.9858 23.625 22.5 22.1108 22.5 20.25C22.5 18.3892 20.9858 16.875 19.125 16.875C18.2317 16.875 17.424 17.2294 16.8199 17.7975L10.08 13.9466C10.1003 13.7993 10.125 13.653 10.125 13.5C10.125 13.347 10.1003 13.2007 10.08 13.0534L16.8199 9.2025C17.424 9.77063 18.2317 10.125 19.125 10.125C20.9858 10.125 22.5 8.61075 22.5 6.75C22.5 4.88925 20.9858 3.375 19.125 3.375C17.2642 3.375 15.75 4.88925 15.75 6.75C15.75 6.903 15.7747 7.04925 15.795 7.19662L9.05512 11.0475C8.43301 10.4565 7.60808 10.1264 6.75 10.125C4.88925 10.125 3.375 11.6392 3.375 13.5Z" fill="#0075FF"/>
</svg>
